<?xml version="1.0" standalone="no"?>
<!DOCTYPE svg PUBLIC "-//W3C//DTD SVG 20010904//EN"
 "http://www.w3.org/TR/2001/REC-SVG-20010904/DTD/svg10.dtd">
<svg version="1.0" xmlns="http://www.w3.org/2000/svg"
 width="198.000000pt" height="198.000000pt" viewBox="0 0 198.000000 198.000000"
 preserveAspectRatio="xMidYMid meet">

<g transform="translate(0.000000,198.000000) scale(0.100000,-0.100000)"
fill="#000000" stroke="none">
<path d="M667 1850 c-75 -13 -172 -64 -225 -117 -171 -172 -177 -431 -14 -605
166 -178 444 -183 617 -13 195 193 166 510 -62 666 -86 60 -214 87 -316 69z
m188 -141 c165 -62 243 -266 162 -425 -74 -146 -252 -209 -397 -142 -79 36
-115 70 -152 145 -28 57 -32 77 -32 137 1 140 89 255 224 297 49 15 138 9 195
-12z"/>
<path d="M1715 1150 l-170 -170 -80 80 -81 80 -44 -45 -44 -45 119 -120 c66
-66 124 -120 130 -120 5 0 105 96 222 212 l213 213 -42 42 c-23 24 -45 43 -48
43 -3 0 -82 -76 -175 -170z"/>
<path d="M470 857 c-87 -19 -166 -65 -225 -129 -102 -110 -128 -203 -123 -448
l3 -155 60 0 60 0 5 200 c6 227 12 247 94 330 77 76 118 85 395 85 284 0 313
-6 394 -80 90 -82 101 -118 105 -347 l4 -193 59 0 59 0 0 189 c0 162 -3 198
-20 255 -38 123 -138 226 -268 277 -53 21 -74 23 -302 26 -167 1 -263 -2 -300
-10z"/>
</g>
</svg>
