<?xml version="1.0" standalone="no"?>
<!DOCTYPE svg PUBLIC "-//W3C//DTD SVG 20010904//EN"
 "http://www.w3.org/TR/2001/REC-SVG-20010904/DTD/svg10.dtd">
<svg version="1.0" xmlns="http://www.w3.org/2000/svg"
 width="189.000000pt" height="189.000000pt" viewBox="0 0 189.000000 189.000000"
 preserveAspectRatio="xMidYMid meet">

<g transform="translate(0.000000,189.000000) scale(0.100000,-0.100000)"
fill="#000000" stroke="none">
<path d="M481 1705 c-130 -29 -220 -94 -263 -192 -43 -97 -64 -285 -33 -297
26 -10 42 21 48 96 20 234 113 325 352 346 77 7 80 8 80 32 0 24 -3 25 -60 27
-33 1 -89 -5 -124 -12z"/>
<path d="M1221 1706 c-21 -25 12 -42 91 -49 235 -20 324 -112 346 -355 7 -75
8 -77 35 -80 27 -3 27 -3 27 53 0 72 -26 198 -51 247 -31 60 -86 115 -143 143
-96 47 -280 72 -305 41z"/>
<path d="M890 1401 c-79 -26 -142 -84 -159 -148 -6 -21 -11 -66 -11 -100 0
-61 0 -61 -35 -73 -44 -14 -91 -68 -107 -122 -20 -69 -17 -293 5 -350 24 -62
72 -103 137 -117 66 -14 384 -14 450 0 104 22 149 93 157 248 7 115 -10 228
-40 273 -12 18 -43 44 -70 57 l-47 23 0 62 c0 81 -15 129 -52 172 -55 63 -160
97 -228 75z m131 -74 c62 -33 89 -83 89 -169 l0 -68 -166 0 -166 0 3 78 c5 91
25 128 91 161 55 27 94 27 149 -2z m183 -318 c52 -41 60 -72 60 -219 0 -156
-12 -198 -66 -227 -29 -16 -59 -18 -253 -18 -249 0 -268 5 -301 72 -23 49 -26
252 -5 327 24 83 35 86 307 86 219 0 233 -1 258 -21z"/>
<path d="M1678 666 c-9 -8 -17 -44 -21 -88 -10 -114 -41 -202 -89 -250 -53
-53 -110 -77 -215 -89 -133 -16 -133 -16 -133 -44 0 -24 3 -25 55 -25 72 0
198 26 248 52 61 31 123 94 147 149 61 143 67 354 8 295z"/>
<path d="M177 664 c-22 -22 8 -226 45 -297 31 -61 94 -123 149 -147 106 -45
290 -67 303 -35 9 24 -22 45 -67 45 -60 0 -172 26 -224 51 -83 40 -137 146
-150 296 -7 78 -10 88 -28 91 -12 2 -24 0 -28 -4z"/>
</g>
</svg>
