<svg width="30" height="24" viewBox="0 0 30 24" fill="none" xmlns="http://www.w3.org/2000/svg">
<path d="M2.91667 23.3333C2.11458 23.3333 1.42795 23.0477 0.856771 22.4766C0.28559 21.9054 0 21.2188 0 20.4167V2.91667C0 2.11458 0.28559 1.42795 0.856771 0.856771C1.42795 0.28559 2.11458 0 2.91667 0H26.25C27.0521 0 27.7387 0.28559 28.3099 0.856771C28.8811 1.42795 29.1667 2.11458 29.1667 2.91667V20.4167C29.1667 21.2188 28.8811 21.9054 28.3099 22.4766C27.7387 23.0477 27.0521 23.3333 26.25 23.3333H2.91667ZM14.5833 13.125L2.91667 5.83333V20.4167H26.25V5.83333L14.5833 13.125ZM14.5833 10.2083L26.25 2.91667H2.91667L14.5833 10.2083ZM2.91667 5.83333V2.91667V20.4167V5.83333Z" fill="#03FF5A"/>
</svg>
