<svg width="73" height="73" viewBox="0 0 73 73" fill="none" xmlns="http://www.w3.org/2000/svg">
<path d="M45.6191 45.5307V49.8073C45.6191 57.8738 45.6191 61.904 42.9455 64.4103C40.2749 66.9166 35.971 66.9166 27.3691 66.9166C18.7673 66.9166 14.4633 66.9166 11.7928 64.4103C9.11914 61.907 9.11914 57.8707 9.11914 49.8103V35.1434C9.11914 27.0769 9.11914 23.0436 11.7928 20.5373C13.563 18.8796 15.8929 18.4203 18.2441 18.2956M27.3691 57.7916H27.3965" stroke="black" stroke-width="3" stroke-linecap="round" stroke-linejoin="round"/>
<path d="M45.6194 10.6458C39.2106 7.05056 35.3538 6.35706 30.4111 6.08331C28.4431 6.43919 27.8226 7.15094 27.3694 9.12498V27.375C27.3542 30.1551 27.9717 31.1953 30.4111 31.9375C37.0328 32.996 40.2052 33.9541 45.2453 36.3236C45.4825 36.4361 45.7624 36.4391 46.0027 36.3357C50.8663 34.2491 54.0083 33.0811 57.6157 32.4029C59.7358 32.0074 62.3699 31.977 63.4192 30.0973C63.7903 29.4372 63.915 28.5825 63.8694 27.375V9.12498C63.2489 7.16615 62.5828 6.5061 60.8277 6.08331C55.4866 6.37835 52.2563 7.13269 45.6194 10.6458ZM45.6194 10.6458V34.9791" stroke="black" stroke-width="3" stroke-linecap="round" stroke-linejoin="round"/>
</svg>
