<svg width="73" height="73" viewBox="0 0 73 73" fill="none" xmlns="http://www.w3.org/2000/svg">
<path d="M47.9062 0.0712891L73 12.6182V40.5991L68.4375 38.3179V17.7153L50.1875 26.8403V36.0366L45.625 38.3179V26.8403L27.375 17.7153V25.8066L22.8125 23.5254V12.6182L47.9062 0.0712891ZM47.9062 22.8838L54.2153 19.7114L37.7119 10.2656L30.1909 14.0439L47.9062 22.8838ZM59.1343 17.2876L65.6216 14.0439L47.9062 5.16846L42.5952 7.8418L59.1343 17.2876ZM41.0625 40.5991L36.5 42.8804V42.8447L22.8125 49.6885V65.9067L36.5 59.0273V64.1602L20.5312 72.1445L0 61.8433V37.7476L20.5312 27.4819L41.0625 37.7476V40.5991ZM18.25 65.9067V49.6885L4.5625 42.8447V59.0273L18.25 65.9067ZM20.5312 45.7319L33.6841 39.1733L20.5312 32.5791L7.37842 39.1733L20.5312 45.7319ZM41.0625 45.6963L57.0312 37.7119L73 45.6963V64.481L57.0312 72.4653L41.0625 64.481V45.6963ZM54.75 66.2275V55.356L45.625 50.7935V61.665L54.75 66.2275ZM68.4375 61.665V50.7935L59.3125 55.356V66.2275L68.4375 61.665ZM57.0312 51.3994L65.6216 47.0864L57.0312 42.8091L48.4409 47.0864L57.0312 51.3994Z" fill="black"/>
</svg>
