<svg width="51" height="51" viewBox="0 0 51 51" fill="none" xmlns="http://www.w3.org/2000/svg">
<path d="M49.1786 49.1786L42.7016 42.7016M14.2181 21.1869C13.3681 21.2525 12.5084 21.2865 11.639 21.2889C9.91229 21.2889 8.21836 21.1322 6.56814 20.9465C5.48414 20.8209 4.47459 20.332 3.70395 19.5593C2.93331 18.7867 2.44699 17.7759 2.32421 16.6916C2.14936 15.0523 2.00364 13.3693 2.00364 11.6499C2.00364 9.93774 2.153 8.2511 2.3315 6.61181C2.56464 4.38967 4.35329 2.60467 6.57179 2.35696C8.222 2.17481 9.91593 2.01453 11.6426 2.01453C13.3694 2.01453 15.0633 2.17117 16.7099 2.35696C18.932 2.60467 20.717 4.38967 20.9538 6.61181C21.1323 8.2511 21.2816 9.9341 21.2816 11.6499C21.2792 12.4659 21.2489 13.2746 21.1906 14.076M11.639 29.7075C9.91229 29.7075 8.21836 29.8678 6.56814 30.05C4.346 30.2977 2.561 32.0863 2.32421 34.3048C2.14936 35.9441 2 37.6307 2 39.3465C2 41.0623 2.14936 42.7453 2.32786 44.3882C2.561 46.6104 4.34964 48.3954 6.56814 48.6431C8.21836 48.8252 9.91229 48.9855 11.639 48.9855C13.3657 48.9855 15.0596 48.8252 16.7062 48.6431M28.8916 11.6499C28.8916 9.9341 29.0373 8.2511 29.2158 6.61181C29.4526 4.38967 31.2412 2.60467 33.4597 2.35696C35.1099 2.17481 36.8039 2.01453 38.5306 2.01453C40.2573 2.01453 41.9476 2.17117 43.5978 2.35696C45.8199 2.60467 47.6049 4.38967 47.8417 6.61181C48.0166 8.2511 48.1696 9.9341 48.1696 11.6499C48.1696 13.3693 48.0166 15.0523 47.8417 16.6916C47.787 17.1956 47.6517 17.6876 47.441 18.1487M32.1446 46.2388C41.1753 46.2388 46.2534 41.1607 46.2534 32.13C46.2534 23.0994 41.1753 18.0212 32.1446 18.0212C23.114 18.0212 18.0359 23.0957 18.0359 32.13C18.0359 41.1643 23.114 46.2388 32.1446 46.2388Z" stroke="black" stroke-width="3" stroke-linecap="round" stroke-linejoin="round"/>
</svg>
