<svg width="61" height="68" viewBox="0 0 61 68" fill="none" xmlns="http://www.w3.org/2000/svg">
<path d="M51.8997 6.29646C45.8295 3.27742 38.3958 1.5 30.375 1.5C22.3542 1.5 14.9237 3.27742 8.85029 6.29646C5.87296 7.77871 4.38429 8.51983 2.94375 10.8491C1.50321 13.1783 1.5 15.4338 1.5 19.9415V31.1386C1.5 49.3715 16.0723 59.5099 24.5134 63.8507C26.8683 65.0603 28.0425 65.6667 30.375 65.6667C32.7075 65.6667 33.8817 65.0603 36.2366 63.8507C44.6745 59.5067 59.25 49.3683 59.25 31.1354V19.9415C59.25 15.4338 59.25 13.1783 57.8062 10.8491C56.3625 8.51983 54.877 7.77871 51.8997 6.29646Z" stroke="black" stroke-width="3" stroke-linecap="round" stroke-linejoin="round"/>
<path d="M30.3753 23.9584V27.1667M27.167 25.5625C27.167 26.4134 27.505 27.2295 28.1067 27.8312C28.7084 28.4328 29.5244 28.7709 30.3753 28.7709C31.2262 28.7709 32.0423 28.4328 32.644 27.8312C33.2456 27.2295 33.5837 26.4134 33.5837 25.5625C33.5837 24.7116 33.2456 23.8956 32.644 23.2939C32.0423 22.6922 31.2262 22.3542 30.3753 22.3542C29.5244 22.3542 28.7084 22.6922 28.1067 23.2939C27.505 23.8956 27.167 24.7116 27.167 25.5625Z" stroke="black" stroke-width="3" stroke-linecap="round" stroke-linejoin="round"/>
<path d="M32.7812 40H27.9688L30.375 28.7708L32.7812 40Z" stroke="black" stroke-width="3" stroke-linecap="round" stroke-linejoin="round"/>
</svg>
